<svg xmlns="http://www.w3.org/2000/svg" xmlns:xlink="http://www.w3.org/1999/xlink" preserveAspectRatio="xMidYMid" width="37" height="30" viewBox="0 0 37 30">
  <defs>
    <style>
      .cls-1 {
        fill: #dbba68;
        fill-rule: evenodd;
      }
    </style>
  </defs>
  <path d="M33.067,0.028 L3.916,0.028 C3.727,0.028 0.000,-0.553 0.000,3.385 L0.000,25.960 C0.000,28.191 1.754,29.999 3.916,29.999 L33.067,29.999 C35.229,29.999 36.983,28.191 36.983,25.960 L36.983,18.922 C36.983,18.922 36.983,3.859 36.983,3.396 C36.994,3.672 37.442,0.028 33.067,0.028 ZM35.662,25.912 C35.662,27.086 34.158,28.637 33.020,28.637 L3.963,28.637 C2.825,28.637 1.321,27.086 1.321,25.912 L1.321,8.883 L35.662,8.883 L35.662,25.912 ZM35.662,7.520 L1.321,7.520 L1.321,3.434 C1.321,3.108 1.480,1.650 2.642,1.390 L34.341,1.390 C35.341,1.336 35.662,3.329 35.662,3.434 L35.662,7.520 ZM3.633,16.376 L20.803,16.376 C20.985,16.376 21.133,16.223 21.133,16.035 L21.133,15.354 C21.133,15.166 20.985,15.013 20.803,15.013 L3.633,15.013 C3.450,15.013 3.302,15.166 3.302,15.354 L3.302,16.035 C3.302,16.223 3.450,16.376 3.633,16.376 ZM26.746,16.376 L33.351,16.376 C33.533,16.376 33.681,16.223 33.681,16.035 L33.681,15.354 C33.681,15.166 33.533,15.013 33.351,15.013 L26.746,15.013 C26.564,15.013 26.416,15.166 26.416,15.354 L26.416,16.035 C26.416,16.223 26.564,16.376 26.746,16.376 ZM3.633,21.144 L14.199,21.144 C14.381,21.144 14.529,20.991 14.529,20.803 L14.529,20.122 C14.529,19.934 14.381,19.782 14.199,19.782 L3.633,19.782 C3.450,19.782 3.302,19.934 3.302,20.122 L3.302,20.803 C3.302,20.991 3.450,21.144 3.633,21.144 Z" class="cls-1"/>
</svg>
