<svg xmlns="http://www.w3.org/2000/svg" xmlns:xlink="http://www.w3.org/1999/xlink" preserveAspectRatio="xMidYMid" width="32" height="32" viewBox="0 0 32 32">
  <defs>
    <style>
      .cls-1 {
        fill: #7b896d;
        fill-rule: evenodd;
      }
    </style>
  </defs>
  <path d="M32.000,15.999 C32.000,7.162 24.837,-0.001 16.000,-0.001 C7.163,-0.001 -0.001,7.162 -0.001,15.999 C-0.001,24.836 7.163,32.000 16.000,32.000 C19.627,32.000 22.949,30.766 25.633,28.732 C25.743,28.607 25.816,28.447 25.816,28.268 C25.816,27.876 25.498,27.558 25.107,27.558 C24.903,27.558 24.722,27.639 24.593,27.776 L24.584,27.776 C22.182,29.543 19.226,30.601 16.015,30.601 C8.013,30.601 1.525,24.113 1.525,16.111 C1.525,8.109 8.013,1.621 16.015,1.621 C24.018,1.621 30.505,8.108 30.505,16.111 C30.505,18.555 29.932,20.855 28.862,22.876 L28.862,22.888 C28.842,22.956 28.821,23.021 28.821,23.094 C28.821,23.485 29.138,23.803 29.530,23.803 C29.835,23.803 30.090,23.607 30.190,23.337 L30.190,23.342 C31.329,21.140 32.000,18.648 32.000,15.999 L32.000,15.999 ZM15.816,7.457 C15.816,7.036 15.474,6.693 15.052,6.693 C14.630,6.693 14.288,7.035 14.288,7.457 L14.288,16.539 C14.288,16.539 14.196,18.074 15.815,18.066 L24.046,18.066 C24.048,18.066 24.052,18.068 24.054,18.068 C24.476,18.068 24.819,17.726 24.819,17.304 C24.819,16.883 24.476,16.541 24.055,16.539 L15.815,16.539 L15.815,7.462 C15.815,7.460 15.816,7.458 15.816,7.457 L15.816,7.457 Z" class="cls-1"/>
</svg>
