<svg xmlns="http://www.w3.org/2000/svg" xmlns:xlink="http://www.w3.org/1999/xlink" preserveAspectRatio="xMidYMid" width="33" height="31" viewBox="0 0 33 31">
  <defs>
    <style>
      .cls-1 {
        fill: #dbba68;
        fill-rule: evenodd;
      }
    </style>
  </defs>
  <path d="M30.541,15.003 L30.541,28.807 L31.789,28.807 C32.401,28.807 32.897,29.298 32.897,29.903 C32.897,30.508 32.401,30.999 31.789,30.999 L1.210,30.999 C0.599,30.999 0.103,30.508 0.103,29.903 C0.103,29.298 0.599,28.807 1.210,28.807 L2.459,28.807 L2.459,15.003 C0.644,14.304 -0.001,12.372 -0.001,11.771 L-0.001,9.781 C-0.001,7.823 1.665,7.823 2.212,7.823 L9.453,7.823 L9.453,3.760 L10.838,3.760 L10.838,7.823 L15.808,7.823 L15.808,3.760 L17.192,3.760 L17.192,7.823 L22.162,7.823 L22.162,3.760 L23.547,3.760 L23.547,7.823 L30.788,7.823 C31.335,7.823 33.000,7.823 33.000,9.781 L33.000,11.771 L33.000,11.771 C33.000,12.372 32.355,14.304 30.541,15.003 ZM3.843,28.807 L29.156,28.807 L29.156,24.765 L3.843,24.765 L3.843,28.807 ZM3.843,24.216 L29.156,24.216 L29.156,19.214 L3.843,19.214 L3.843,24.216 ZM3.843,18.666 L29.156,18.666 L29.156,15.258 C29.139,15.258 29.122,15.258 29.104,15.258 C27.526,15.258 26.512,14.386 25.932,13.480 C25.371,14.321 24.386,15.258 22.780,15.258 C21.269,15.258 20.258,14.378 19.662,13.471 C19.124,14.316 18.173,15.258 16.612,15.258 C15.010,15.258 13.975,14.256 13.383,13.400 C12.794,14.332 11.770,15.258 10.219,15.258 C8.614,15.258 7.628,14.321 7.067,13.480 C6.487,14.386 5.474,15.258 3.895,15.258 C3.877,15.258 3.861,15.258 3.843,15.258 L3.843,18.666 ZM31.755,9.781 C31.755,9.201 31.641,9.056 30.788,9.056 L2.212,9.056 C1.359,9.056 1.245,9.201 1.245,9.781 L1.245,11.770 C1.246,11.782 1.666,14.025 3.895,14.025 C5.924,14.025 6.407,11.960 6.426,11.872 C6.488,11.597 6.730,11.398 7.015,11.389 C7.299,11.383 7.554,11.563 7.633,11.834 C7.659,11.922 8.310,14.025 10.220,14.025 C12.117,14.025 12.710,11.935 12.735,11.846 C12.805,11.586 13.040,11.401 13.312,11.390 C13.320,11.390 13.329,11.390 13.337,11.390 C13.599,11.390 13.835,11.552 13.923,11.798 C13.931,11.819 14.761,14.026 16.612,14.026 C18.441,14.026 19.056,11.865 19.062,11.843 C19.136,11.575 19.382,11.389 19.663,11.389 C19.664,11.389 19.665,11.389 19.666,11.389 C19.948,11.390 20.194,11.578 20.266,11.848 C20.289,11.935 20.883,14.025 22.780,14.025 C24.689,14.025 25.340,11.922 25.367,11.832 C25.448,11.563 25.706,11.384 25.986,11.390 C26.271,11.400 26.512,11.598 26.573,11.872 C26.593,11.958 27.095,14.026 29.105,14.026 C31.334,14.026 31.753,11.783 31.755,11.760 L31.755,9.781 ZM23.546,2.120 L22.162,2.120 L22.162,0.685 C22.162,0.306 22.472,-0.000 22.855,-0.000 C23.237,-0.000 23.546,0.306 23.546,0.685 L23.546,0.685 L23.546,2.120 ZM17.192,2.120 L15.807,2.120 L15.807,0.685 C15.807,0.306 16.118,-0.000 16.500,-0.000 C16.882,-0.000 17.192,0.306 17.192,0.685 L17.192,0.685 L17.192,2.120 ZM9.453,0.685 C9.453,0.306 9.763,-0.000 10.145,-0.000 C10.528,-0.000 10.838,0.306 10.838,0.685 L10.838,0.685 L10.838,2.120 L9.453,2.120 L9.453,0.685 Z" class="cls-1"/>
</svg>
