<svg xmlns="http://www.w3.org/2000/svg" xmlns:xlink="http://www.w3.org/1999/xlink" preserveAspectRatio="xMidYMid" width="40" height="19" viewBox="0 0 40 19">
  <defs>
    <style>
      .cls-1 {
        fill: #7b896d;
        fill-rule: evenodd;
      }
    </style>
  </defs>
  <path d="M14.814,18.999 C12.684,18.999 10.677,18.905 9.165,18.738 C2.487,17.995 0.053,14.962 -0.000,12.370 C-0.000,6.046 6.431,3.265 6.703,3.148 C7.545,2.690 8.218,2.589 8.625,2.589 C8.983,2.589 9.199,2.663 9.274,2.694 C10.051,2.972 12.002,4.573 13.287,6.081 C13.069,4.670 12.353,3.716 12.072,3.387 C11.579,2.809 11.139,2.594 10.978,2.594 L9.476,2.594 L10.507,1.565 C11.349,0.746 14.138,0.112 15.974,0.112 C16.805,0.112 17.395,0.233 17.778,0.482 C18.423,0.899 21.093,2.990 22.617,5.459 C22.277,3.295 20.861,1.462 20.565,1.264 L18.627,0.409 L20.769,0.135 C21.406,0.046 22.032,0.001 22.628,0.001 C27.586,0.001 30.110,2.976 31.208,5.787 C31.257,4.473 31.160,3.157 31.083,2.512 L30.966,1.527 L31.922,1.879 C32.114,1.950 36.627,3.630 38.507,6.056 C40.517,8.655 40.497,11.667 38.457,13.732 L38.397,13.788 C32.132,18.623 18.762,18.999 14.814,18.999 ZM8.625,3.797 C8.413,3.797 7.952,3.854 7.254,4.229 C7.142,4.281 1.244,6.847 1.244,12.359 C1.286,14.429 3.426,16.884 9.305,17.537 C10.772,17.700 12.730,17.791 14.814,17.791 C18.651,17.791 31.623,17.435 37.588,12.867 C39.154,11.254 39.125,8.870 37.510,6.783 C36.325,5.251 33.784,3.992 32.410,3.391 C32.508,4.858 32.568,7.558 31.857,9.129 L30.816,11.427 L30.666,8.922 C30.504,6.254 28.615,1.210 22.628,1.210 C22.469,1.210 22.308,1.214 22.145,1.221 C23.250,2.739 24.537,5.635 23.628,8.319 L22.807,10.749 L22.421,8.219 C22.003,5.474 18.313,2.280 17.088,1.487 C17.045,1.459 16.788,1.321 15.974,1.321 C14.783,1.321 13.309,1.612 12.338,1.948 C12.575,2.130 12.806,2.355 13.031,2.616 C13.513,3.182 15.046,5.257 14.466,8.243 L13.893,11.190 L13.246,8.258 C12.989,7.096 9.610,4.101 8.811,3.816 C8.810,3.815 8.747,3.797 8.625,3.797 Z" class="cls-1"/>
</svg>
