<svg xmlns="http://www.w3.org/2000/svg" xmlns:xlink="http://www.w3.org/1999/xlink" preserveAspectRatio="xMidYMid" width="38" height="38" viewBox="0 0 38 38">
  <defs>
    <style>
      .cls-1 {
        fill: #dbba68;
        fill-rule: evenodd;
      }
    </style>
  </defs>
  <path d="M19.000,37.999 C16.435,37.999 13.947,37.497 11.604,36.506 C9.342,35.549 7.310,34.179 5.565,32.434 C3.821,30.690 2.451,28.658 1.494,26.395 C0.503,24.052 0.000,21.564 0.000,18.999 C0.000,16.435 0.503,13.947 1.494,11.604 C2.451,9.341 3.821,7.309 5.565,5.565 C7.310,3.820 9.342,2.450 11.604,1.493 C13.947,0.502 16.435,-0.000 19.000,-0.000 C21.564,-0.000 24.053,0.502 26.396,1.493 C28.658,2.450 30.690,3.820 32.435,5.565 C34.179,7.309 35.549,9.341 36.506,11.604 C37.497,13.947 37.999,16.435 37.999,18.999 C37.999,21.564 37.497,24.052 36.506,26.395 C35.549,28.658 34.179,30.690 32.435,32.434 C30.690,34.179 28.658,35.549 26.396,36.506 C24.053,37.497 21.564,37.999 19.000,37.999 ZM19.000,1.665 C9.442,1.665 1.665,9.441 1.665,19.000 C1.665,28.558 9.442,36.334 19.000,36.334 C28.558,36.334 36.334,28.558 36.334,19.000 C36.334,9.441 28.558,1.665 19.000,1.665 ZM24.614,13.211 C24.614,9.991 22.284,7.771 18.974,7.771 C15.651,7.771 13.386,10.347 13.386,13.514 L13.386,16.192 L12.684,16.192 C11.136,16.192 9.877,17.451 9.877,18.999 L9.877,27.421 C9.877,28.969 11.136,30.228 12.684,30.228 L25.316,30.228 C26.864,30.228 28.123,28.969 28.123,27.421 L28.123,18.999 C28.123,17.451 26.864,16.192 25.316,16.192 L24.614,16.192 L23.211,16.192 L14.789,16.192 L14.789,13.514 C14.789,11.122 16.424,9.175 18.974,9.175 C21.497,9.175 23.211,10.778 23.211,13.211 C23.211,13.211 23.206,13.813 23.909,13.817 C24.532,13.806 24.614,13.211 24.614,13.211 ZM26.719,27.421 C26.719,28.195 26.090,28.824 25.316,28.824 L12.684,28.824 C11.910,28.824 11.280,28.195 11.280,27.421 L11.280,18.999 C11.280,18.226 11.910,17.596 12.684,17.596 L25.316,17.596 C26.090,17.596 26.719,18.226 26.719,18.999 L26.719,27.421 ZM19.000,20.403 C18.225,20.403 17.596,21.031 17.596,21.807 C17.596,22.326 17.879,22.779 18.298,23.022 L18.298,25.315 C18.298,25.703 18.612,26.017 19.000,26.017 C19.387,26.017 19.702,25.703 19.702,25.315 L19.702,23.022 C20.121,22.779 20.404,22.326 20.404,21.807 C20.403,21.031 19.775,20.403 19.000,20.403 Z" class="cls-1"/>
</svg>
