<svg xmlns="http://www.w3.org/2000/svg" xmlns:xlink="http://www.w3.org/1999/xlink" preserveAspectRatio="xMidYMid" width="34" height="27" viewBox="0 0 34 27">
  <defs>
    <style>
      .cls-1 {
        fill: #7e8c71;
        fill-rule: evenodd;
      }
    </style>
  </defs>
  <path d="M34.000,12.668 C34.000,12.658 33.997,12.648 33.997,12.638 C33.996,12.609 33.992,12.581 33.988,12.552 C33.984,12.527 33.980,12.503 33.974,12.479 C33.968,12.453 33.959,12.428 33.950,12.403 C33.941,12.379 33.932,12.355 33.922,12.333 C33.910,12.309 33.896,12.286 33.882,12.263 C33.869,12.241 33.856,12.219 33.840,12.198 C33.825,12.177 33.807,12.158 33.790,12.139 C33.770,12.118 33.751,12.098 33.730,12.079 C33.722,12.072 33.716,12.063 33.707,12.056 L27.876,7.267 C27.915,6.916 27.936,6.537 27.936,6.127 C27.936,3.264 25.015,0.001 22.453,0.001 C19.891,0.001 16.971,3.264 16.971,6.127 C16.971,6.530 16.993,6.904 17.035,7.251 L0.597,11.898 C0.583,11.902 0.571,11.909 0.558,11.913 C0.529,11.923 0.500,11.934 0.473,11.946 C0.450,11.957 0.427,11.969 0.405,11.982 C0.382,11.995 0.359,12.010 0.337,12.026 C0.315,12.041 0.295,12.058 0.275,12.075 C0.255,12.092 0.237,12.110 0.219,12.128 C0.201,12.148 0.184,12.168 0.168,12.189 C0.152,12.209 0.137,12.230 0.123,12.252 C0.110,12.274 0.098,12.296 0.086,12.319 C0.074,12.342 0.063,12.367 0.054,12.392 C0.045,12.416 0.037,12.440 0.030,12.465 C0.023,12.490 0.018,12.515 0.013,12.541 C0.009,12.568 0.006,12.596 0.005,12.624 C0.004,12.639 0.000,12.653 0.000,12.668 L0.000,26.196 C0.000,26.639 0.372,26.999 0.830,26.999 L33.170,26.999 C33.628,26.999 34.000,26.640 34.000,26.196 L34.000,12.668 ZM26.015,19.128 C25.524,20.035 24.564,20.598 23.510,20.598 C22.456,20.598 21.496,20.035 21.006,19.128 C20.228,17.689 18.705,16.795 17.030,16.795 C15.355,16.795 13.832,17.689 13.054,19.128 C12.564,20.035 11.605,20.598 10.550,20.598 C9.496,20.598 8.536,20.035 8.046,19.128 C7.268,17.689 5.745,16.795 4.070,16.795 C3.196,16.795 2.367,17.043 1.660,17.480 L1.660,13.472 L32.339,13.472 L32.339,17.439 C31.646,17.026 30.838,16.795 29.990,16.795 C28.315,16.795 26.792,17.689 26.015,19.128 ZM22.453,1.607 C23.962,1.607 26.276,4.031 26.276,6.127 C26.276,9.021 25.280,9.021 24.316,9.021 C24.034,9.021 23.743,9.004 23.449,8.987 C23.117,8.968 22.782,8.950 22.453,8.950 C22.177,8.950 21.888,8.965 21.592,8.981 C21.317,8.997 21.037,9.012 20.761,9.012 C19.763,9.012 18.631,9.012 18.631,6.127 C18.631,3.988 20.909,1.607 22.453,1.607 ZM20.761,10.618 C21.069,10.618 21.380,10.602 21.686,10.585 C22.267,10.554 22.804,10.561 23.352,10.591 C23.679,10.609 24.003,10.627 24.316,10.627 C25.846,10.627 26.855,10.106 27.411,8.992 L30.909,11.865 L6.632,11.865 L17.450,8.807 C18.020,10.031 19.106,10.618 20.761,10.618 ZM1.661,25.393 L1.661,19.723 C2.172,18.906 3.076,18.402 4.070,18.402 C5.125,18.402 6.084,18.965 6.575,19.872 C7.352,21.311 8.876,22.205 10.550,22.205 C12.225,22.205 13.748,21.311 14.526,19.872 C15.016,18.965 15.976,18.402 17.030,18.402 C18.085,18.402 19.044,18.965 19.534,19.872 C20.312,21.311 21.836,22.205 23.510,22.205 C25.185,22.205 26.708,21.311 27.486,19.872 C27.976,18.965 28.936,18.402 29.990,18.402 C30.945,18.402 31.818,18.867 32.339,19.628 L32.339,25.393 L1.661,25.393 Z" class="cls-1"/>
</svg>
