<svg xmlns="http://www.w3.org/2000/svg" xmlns:xlink="http://www.w3.org/1999/xlink" preserveAspectRatio="xMidYMid" width="19" height="19" viewBox="0 0 19 19">
  <defs>
    <style>
      .cls-1 {
        fill: #7b896d;
        opacity: 0.3;
        fill-rule: evenodd;
      }
    </style>
  </defs>
  <path d="M4.450,-0.000 C3.282,0.363 4.009,1.092 4.492,1.576 C5.464,2.542 6.436,3.509 7.408,4.475 C7.638,4.790 7.582,5.254 7.324,5.505 C6.750,6.064 6.193,5.317 5.876,5.043 C5.037,4.216 4.198,3.390 3.359,2.563 C3.141,2.345 2.773,1.756 2.289,1.975 C1.453,2.353 2.281,3.123 2.583,3.425 C3.464,4.300 4.345,5.176 5.226,6.051 C5.458,6.284 5.921,6.761 5.583,7.228 C5.267,7.665 4.745,7.624 4.345,7.312 C3.415,6.374 2.485,5.435 1.554,4.496 C1.229,4.171 0.383,3.310 0.023,4.265 C-0.158,4.745 0.756,5.418 0.988,5.652 C1.533,6.199 2.079,6.745 2.624,7.291 C3.266,7.934 3.852,8.668 4.869,8.930 C5.375,9.060 6.149,9.057 6.632,8.909 C6.940,8.815 7.184,8.550 7.576,8.615 C7.765,8.797 7.954,8.979 8.142,9.161 C8.293,9.181 9.113,8.330 9.128,8.153 C8.943,7.893 8.575,7.769 8.562,7.354 C9.921,4.725 7.718,2.889 6.296,1.660 C5.660,1.110 5.245,0.402 4.450,-0.000 ZM17.856,0.882 C17.808,0.889 17.759,0.896 17.710,0.903 C13.437,5.161 9.163,9.421 4.890,13.679 C3.834,14.744 2.778,15.808 1.722,16.873 C1.430,17.272 1.506,17.933 1.932,18.155 C2.814,18.614 3.747,17.240 4.177,16.810 C5.485,15.507 6.793,14.204 8.100,12.902 C8.395,12.607 9.211,11.572 9.611,11.515 C10.078,11.812 10.511,12.534 11.352,12.187 C11.913,11.956 12.865,10.778 13.325,10.317 C14.464,9.175 15.605,8.033 16.745,6.892 C17.353,6.282 18.134,5.706 18.486,4.854 C19.079,3.420 18.714,1.743 17.856,0.882 ZM13.094,11.893 C13.045,11.900 12.996,11.907 12.947,11.914 L11.814,12.902 C11.821,12.958 11.828,13.014 11.835,13.069 C13.583,14.925 15.332,16.782 17.080,18.638 C17.465,19.096 18.404,19.144 18.780,18.638 C19.397,17.805 18.574,16.989 18.066,16.579 C16.409,15.017 14.751,13.455 13.094,11.893 Z" class="cls-1"/>
</svg>
