<svg xmlns="http://www.w3.org/2000/svg" xmlns:xlink="http://www.w3.org/1999/xlink" preserveAspectRatio="xMidYMid" width="26.032" height="28" viewBox="0 0 26.032 28">
  <defs>
    <style>
      .cls-1 {
        fill: #dbba68;
        fill-rule: evenodd;
      }
    </style>
  </defs>
  <path d="M25.248,4.800 L0.797,4.800 C0.361,4.800 0.009,4.442 0.009,4.000 C0.009,3.558 0.361,3.200 0.797,3.200 L25.248,3.200 C25.684,3.200 26.037,3.558 26.037,4.000 C26.037,4.442 25.684,4.800 25.248,4.800 L25.248,4.800 M17.361,1.600 L8.685,1.600 C8.249,1.600 7.896,1.242 7.896,0.800 C7.896,0.358 8.249,-0.000 8.685,-0.000 L17.361,-0.000 C17.797,-0.000 18.149,0.358 18.149,0.800 C18.149,1.242 17.797,1.600 17.361,1.600 L17.361,1.600 M9.473,22.400 L9.473,8.800 C9.473,8.358 9.826,8.000 10.262,8.000 C10.698,8.000 11.051,8.358 11.051,8.800 L11.051,22.400 C11.051,22.842 10.698,23.200 10.262,23.200 C9.826,23.200 9.473,22.842 9.473,22.400 L9.473,22.400 M14.994,22.400 L14.994,8.800 C14.994,8.358 15.347,8.000 15.783,8.000 C16.219,8.000 16.572,8.358 16.572,8.800 L16.572,22.400 C16.572,22.842 16.219,23.200 15.783,23.200 C15.347,23.200 14.994,22.842 14.994,22.400 L14.994,22.400 M3.952,7.200 C4.388,7.200 4.741,7.558 4.741,8.000 L4.741,8.947 L4.741,12.000 L4.741,24.800 C4.741,25.683 5.448,26.400 6.318,26.400 L19.727,26.400 C20.598,26.400 21.304,25.683 21.304,24.800 L21.304,12.000 L21.304,8.947 L21.304,8.000 C21.304,7.558 21.657,7.200 22.093,7.200 C22.529,7.200 22.882,7.558 22.882,8.000 L22.882,11.200 L22.882,12.000 L22.882,25.600 C22.882,26.925 21.822,28.000 20.516,28.000 L5.530,28.000 C4.223,28.000 3.163,26.925 3.163,25.600 L3.163,13.468 L3.163,12.000 L3.163,11.200 L3.163,8.000 C3.163,7.558 3.516,7.200 3.952,7.200 L3.952,7.200 " class="cls-1"/>
</svg>
