<svg xmlns="http://www.w3.org/2000/svg" xmlns:xlink="http://www.w3.org/1999/xlink" preserveAspectRatio="xMidYMid" width="25" height="27" viewBox="0 0 25 27">
  <defs>
    <style>
      .cls-1 {
        fill: #dbba68;
        fill-rule: evenodd;
      }
    </style>
  </defs>
  <path d="M23.437,11.911 L23.437,22.235 C23.437,23.990 22.038,25.412 20.313,25.412 L4.687,25.412 C2.962,25.412 1.562,23.990 1.562,22.235 L1.562,4.764 C1.562,3.009 2.962,1.587 4.687,1.587 L14.063,1.587 L14.063,-0.001 L4.687,-0.001 C2.098,-0.001 -0.000,2.132 -0.000,4.764 L-0.000,22.235 C-0.000,24.867 2.098,27.000 4.687,27.000 L20.313,27.000 C22.901,27.000 25.000,24.867 25.000,22.235 L25.000,11.911 L23.437,11.911 ZM9.591,16.456 C9.897,16.767 10.392,16.767 10.697,16.456 L23.978,2.957 C24.284,2.647 24.284,2.142 23.978,1.831 C23.672,1.521 23.177,1.521 22.871,1.831 L9.591,15.332 C9.285,15.642 9.285,16.145 9.591,16.456 Z" class="cls-1"/>
</svg>
