<svg xmlns="http://www.w3.org/2000/svg" xmlns:xlink="http://www.w3.org/1999/xlink" preserveAspectRatio="xMidYMid" width="37" height="30" viewBox="0 0 37 30">
  <defs>
    <style>
      .cls-1 {
        fill: #dbba68;
        fill-rule: evenodd;
      }
    </style>
  </defs>
  <path d="M8.016,11.876 L9.455,11.876 L9.455,14.375 L8.016,14.375 L8.016,11.876 ZM8.016,16.667 L9.455,16.667 L9.455,19.168 L8.016,19.168 L8.016,16.667 ZM8.016,21.667 L9.455,21.667 L9.455,24.168 L8.016,24.168 L8.016,21.667 ZM8.016,6.667 L9.455,6.667 L9.455,9.168 L8.016,9.168 L8.016,6.667 ZM34.532,-0.000 L2.467,-0.000 C1.234,-0.000 -0.000,1.041 -0.000,2.292 L-0.000,10.625 C2.055,10.833 3.494,12.499 3.494,14.584 C3.494,16.667 2.055,18.125 -0.000,18.333 L-0.000,27.708 C-0.000,28.958 1.028,30.000 2.467,30.000 L34.533,30.000 C35.766,30.000 37.000,29.166 37.000,27.708 L37.000,18.333 C35.356,17.917 33.916,16.251 33.916,14.374 C33.916,12.499 35.356,10.833 37.000,10.416 L37.000,2.292 C36.999,1.041 36.177,-0.000 34.532,-0.000 ZM32.477,14.584 C32.477,16.875 33.711,18.542 35.560,19.583 L35.560,27.083 C35.560,27.707 35.149,28.334 34.327,28.334 L9.456,28.334 L9.456,26.458 L8.016,26.458 L8.016,28.334 L2.878,28.334 C2.261,28.334 1.644,28.126 1.644,27.499 L1.644,19.791 C3.699,18.958 4.933,17.082 4.933,14.791 C4.933,12.499 3.494,10.624 1.644,9.792 L1.644,2.708 C1.644,2.084 2.055,1.458 2.878,1.458 L8.016,1.458 L8.016,3.750 L9.455,3.750 L9.455,1.458 L34.327,1.458 C34.943,1.458 35.560,1.875 35.560,2.500 L35.560,9.584 C33.711,10.625 32.477,12.499 32.477,14.584 L32.477,14.584 ZM29.188,8.958 L13.361,8.958 C13.156,8.958 12.950,8.958 12.950,9.167 L12.950,10.000 C12.950,10.416 13.156,10.416 13.361,10.416 L29.188,10.416 C29.393,10.416 29.599,10.208 29.599,10.000 L29.599,9.167 C29.393,9.167 29.393,8.958 29.188,8.958 ZM29.188,18.751 L13.361,18.751 C13.156,18.751 12.950,18.959 12.950,19.167 L12.950,20.001 C12.950,20.209 13.156,20.417 13.361,20.417 L29.188,20.417 C29.393,20.417 29.599,20.209 29.599,20.001 L29.599,19.168 C29.393,18.751 29.393,18.751 29.188,18.751 Z" class="cls-1"/>
</svg>
