<svg xmlns="http://www.w3.org/2000/svg" xmlns:xlink="http://www.w3.org/1999/xlink" preserveAspectRatio="xMidYMid" width="21" height="24" viewBox="0 0 21 24">
  <defs>
    <style>
      .cls-1 {
        fill: #7b896d;
        fill-rule: evenodd;
      }
    </style>
  </defs>
  <path d="M12.558,7.799 C12.558,6.711 11.637,5.828 10.501,5.828 C9.364,5.828 8.443,6.711 8.443,7.799 C8.443,8.888 9.364,9.768 10.501,9.768 C11.637,9.768 12.558,8.888 12.558,7.799 M9.606,19.917 C9.850,20.222 10.169,20.386 10.586,20.386 C10.978,20.386 11.346,20.199 11.567,19.917 C12.939,18.159 14.189,16.492 15.830,13.983 C17.471,11.472 18.575,9.009 18.575,7.508 C18.672,3.449 14.923,-0.093 10.586,0.000 C6.299,-0.093 2.500,3.449 2.598,7.508 C2.598,9.009 3.701,11.472 5.342,13.983 C7.007,16.492 8.234,18.159 9.606,19.917 M5.979,3.168 C7.255,1.971 8.797,1.361 10.586,1.361 C12.375,1.361 13.919,1.971 15.193,3.168 C16.492,4.365 17.129,5.819 17.129,7.508 C17.129,8.423 16.591,9.807 15.512,11.707 C14.458,13.607 12.988,15.741 11.150,18.159 C11.028,18.322 10.807,18.416 10.586,18.416 C10.390,18.416 10.145,18.346 10.047,18.159 C6.372,13.373 4.068,9.291 4.068,7.508 C4.068,5.819 4.705,4.365 5.979,3.168 M20.364,19.660 C19.996,19.308 19.506,19.027 18.893,18.815 C18.281,18.604 17.570,18.510 16.810,18.510 L16.811,18.535 L16.786,18.534 C16.492,18.510 16.271,18.721 16.246,19.003 C16.246,19.284 16.466,19.518 16.761,19.518 L17.202,19.532 C18.683,19.600 19.399,20.144 19.628,20.364 C19.849,20.575 19.947,20.763 19.947,20.950 C19.947,21.396 19.163,21.935 17.472,22.334 C15.732,22.756 13.233,23.014 10.537,23.014 C7.720,23.014 5.416,22.780 3.578,22.334 C1.839,21.888 1.054,21.349 1.054,20.950 C1.054,20.597 1.201,20.317 1.495,20.129 C1.890,19.895 2.536,19.717 3.403,19.646 C3.429,19.649 3.453,19.659 3.480,19.659 L4.264,19.612 C4.558,19.589 4.778,19.355 4.754,19.074 C4.754,18.815 4.485,18.604 4.215,18.604 C2.696,18.628 1.593,18.862 0.908,19.284 C0.294,19.683 -0.001,20.223 -0.001,20.950 C-0.001,21.513 0.367,22.028 1.030,22.428 C1.568,22.780 2.328,23.061 3.308,23.296 C5.146,23.765 7.743,24.000 10.537,24.000 C13.356,24.000 15.903,23.766 17.717,23.296 C18.697,23.061 19.457,22.780 19.996,22.428 C20.659,22.029 21.000,21.513 21.000,20.950 C21.000,20.481 20.780,20.058 20.364,19.660 " class="cls-1"/>
</svg>
