<svg xmlns="http://www.w3.org/2000/svg" xmlns:xlink="http://www.w3.org/1999/xlink" preserveAspectRatio="xMidYMid" width="30" height="31" viewBox="0 0 30 31">
  <defs>
    <style>
      .cls-1 {
        fill: #dbba68;
        fill-rule: evenodd;
      }
    </style>
  </defs>
  <path d="M11.883,-0.001 L2.156,-0.001 C1.126,-0.001 0.288,0.911 0.288,2.030 L0.288,12.168 C0.288,13.288 1.126,14.199 2.156,14.199 L11.883,14.199 C12.913,14.199 13.751,13.288 13.751,12.168 L13.751,2.030 C13.751,0.910 12.913,-0.001 11.883,-0.001 ZM12.179,12.168 C12.179,12.424 12.023,12.602 11.883,12.602 L2.156,12.602 C2.016,12.602 1.861,12.424 1.861,12.168 L1.861,2.030 C1.861,1.775 2.016,1.597 2.156,1.597 L11.883,1.597 C12.023,1.597 12.179,1.775 12.179,2.030 L12.179,12.168 ZM28.131,-0.001 L18.404,-0.001 C17.375,-0.001 16.537,0.911 16.537,2.030 L16.537,12.168 C16.537,13.288 17.375,14.199 18.404,14.199 L28.131,14.199 C29.161,14.199 29.999,13.288 29.999,12.168 L29.999,2.030 C29.999,0.910 29.161,-0.001 28.131,-0.001 ZM28.427,12.168 C28.427,12.424 28.271,12.602 28.131,12.602 L18.404,12.602 C18.265,12.602 18.109,12.424 18.109,12.168 L18.109,2.030 C18.109,1.775 18.265,1.597 18.404,1.597 L28.131,1.597 C28.271,1.597 28.427,1.775 28.427,2.030 L28.427,12.168 L28.427,12.168 ZM11.595,16.801 L1.868,16.801 C0.838,16.801 0.000,17.712 0.000,18.831 L0.000,28.969 C0.000,30.089 0.838,31.000 1.868,31.000 L11.595,31.000 C12.625,31.000 13.463,30.089 13.463,28.969 L13.463,18.831 C13.463,17.712 12.625,16.801 11.595,16.801 ZM11.891,28.969 C11.891,29.225 11.735,29.403 11.595,29.403 L1.868,29.403 C1.728,29.403 1.572,29.225 1.572,28.969 L1.572,18.831 C1.572,18.576 1.728,18.398 1.868,18.398 L11.595,18.398 C11.735,18.398 11.891,18.576 11.891,18.831 L11.891,28.969 L11.891,28.969 ZM18.479,17.997 C18.045,17.997 17.693,18.355 17.693,18.796 L17.693,18.796 L17.693,20.210 L17.693,20.211 C17.693,20.652 18.045,21.009 18.479,21.009 C18.914,21.009 19.266,20.652 19.266,20.211 L19.266,20.211 L19.266,20.211 L19.266,18.796 L19.266,18.796 C19.266,18.355 18.914,17.997 18.479,17.997 ZM22.901,17.997 C22.467,17.997 22.115,18.355 22.115,18.796 L22.115,18.796 L22.115,23.232 L22.115,23.232 C22.115,23.673 22.467,24.031 22.901,24.031 C23.335,24.031 23.687,23.673 23.687,23.232 L23.687,23.232 L23.687,23.232 L23.687,18.796 L23.687,18.796 C23.687,18.355 23.335,17.997 22.901,17.997 ZM27.323,17.997 C26.889,17.997 26.537,18.355 26.537,18.796 L26.537,18.796 L26.537,21.195 L26.537,21.196 C26.537,21.637 26.889,21.994 27.323,21.994 C27.757,21.994 28.109,21.637 28.109,21.196 L28.109,21.196 L28.109,21.196 L28.109,18.796 L28.109,18.796 C28.109,18.355 27.757,17.997 27.323,17.997 ZM18.479,23.029 C18.045,23.029 17.693,23.386 17.693,23.827 L17.693,23.827 L17.693,28.243 L17.693,28.244 C17.693,28.685 18.045,29.042 18.479,29.042 C18.914,29.042 19.266,28.685 19.266,28.244 L19.266,28.244 L19.266,28.244 L19.266,23.827 L19.266,23.827 C19.266,23.386 18.914,23.029 18.479,23.029 ZM22.901,25.025 C22.467,25.025 22.115,25.383 22.115,25.824 L22.115,25.824 L22.115,28.243 L22.115,28.244 C22.115,28.685 22.467,29.042 22.901,29.042 C23.335,29.042 23.687,28.685 23.687,28.244 L23.687,28.244 L23.687,28.244 L23.687,25.824 L23.687,25.824 C23.687,25.383 23.335,25.025 22.901,25.025 ZM27.323,24.027 C26.889,24.027 26.537,24.384 26.537,24.826 L26.537,24.826 L26.537,28.243 L26.537,28.244 C26.537,28.685 26.889,29.042 27.323,29.042 C27.757,29.042 28.109,28.685 28.109,28.244 L28.109,28.244 L28.109,28.244 L28.109,24.826 L28.109,24.826 C28.109,24.384 27.757,24.027 27.323,24.027 Z" class="cls-1"/>
</svg>
