<svg xmlns="http://www.w3.org/2000/svg" xmlns:xlink="http://www.w3.org/1999/xlink" preserveAspectRatio="xMidYMid" width="14" height="13" viewBox="0 0 14 13">
  <defs>
    <style>
      .cls-1 {
        fill: #dbba68;
        fill-rule: evenodd;
      }
    </style>
  </defs>
  <path d="M14.000,0.562 C13.532,0.562 13.182,0.588 12.949,0.640 C12.715,0.692 12.538,0.769 12.418,0.873 C12.298,0.976 12.144,1.164 11.957,1.435 L7.891,7.275 L7.891,8.614 L10.715,8.614 L10.715,9.196 L7.891,9.196 L7.891,11.408 C7.891,11.680 7.938,11.874 8.031,11.990 C8.125,12.107 8.332,12.197 8.652,12.262 C8.973,12.327 9.527,12.391 10.315,12.456 L10.315,12.999 L4.046,12.999 L4.046,12.456 C4.793,12.404 5.338,12.346 5.678,12.281 C6.018,12.217 6.245,12.123 6.359,12.000 C6.472,11.877 6.529,11.680 6.529,11.408 L6.529,9.196 L3.325,9.196 L3.325,8.614 L6.529,8.614 C6.529,7.760 6.396,7.153 6.129,6.790 L2.423,1.784 C2.049,1.280 1.685,0.947 1.332,0.785 C0.978,0.624 0.534,0.543 -0.000,0.543 L-0.000,-0.000 L5.247,-0.000 L5.247,0.543 C4.579,0.543 4.106,0.572 3.825,0.630 C3.545,0.688 3.405,0.785 3.405,0.921 C3.405,1.057 3.491,1.241 3.665,1.474 L7.531,6.693 L11.376,1.164 C11.469,1.034 11.516,0.921 11.516,0.824 C11.516,0.727 11.383,0.659 11.116,0.620 C10.849,0.582 10.428,0.562 9.854,0.562 L9.854,-0.000 L14.000,-0.000 L14.000,0.562 L14.000,0.562 Z" class="cls-1"/>
</svg>
