<svg xmlns="http://www.w3.org/2000/svg" xmlns:xlink="http://www.w3.org/1999/xlink" preserveAspectRatio="xMidYMid" width="22" height="22" viewBox="0 0 22 22">
  <defs>
    <style>
      .cls-1 {
        fill: #ddbe74;
        fill-rule: evenodd;
      }
    </style>
  </defs>
  <path d="M11.000,-0.000 C4.925,-0.000 -0.000,4.925 -0.000,11.000 C-0.000,17.075 4.925,22.000 11.000,22.000 C17.075,22.000 22.000,17.075 22.000,11.000 C22.000,4.925 17.075,-0.000 11.000,-0.000 ZM11.000,20.900 C5.541,20.900 1.100,16.459 1.100,11.000 C1.100,5.541 5.541,1.100 11.000,1.100 C16.459,1.100 20.900,5.541 20.900,11.000 C20.900,16.459 16.459,20.900 11.000,20.900 ZM5.500,11.000 C5.500,14.037 7.962,16.500 11.000,16.500 C14.038,16.500 16.500,14.037 16.500,11.000 C16.500,7.962 14.038,5.500 11.000,5.500 C7.962,5.500 5.500,7.962 5.500,11.000 Z" class="cls-1"/>
</svg>
