<svg xmlns="http://www.w3.org/2000/svg" xmlns:xlink="http://www.w3.org/1999/xlink" preserveAspectRatio="xMidYMid" width="18" height="26" viewBox="0 0 18 26">
  <defs>
    <style>
      .cls-1 {
        fill: #7b896d;
        fill-rule: evenodd;
      }
    </style>
  </defs>
  <path d="M17.996,6.828 L17.681,7.092 L14.236,9.937 C16.512,11.546 17.996,14.168 17.996,17.135 C17.996,22.030 13.969,25.999 9.000,25.999 C4.031,25.999 0.002,22.030 0.002,17.135 C0.002,14.168 1.488,11.546 3.763,9.937 L0.000,6.825 L0.002,6.822 L0.002,1.181 C0.002,0.528 0.540,-0.001 1.203,-0.001 L16.799,-0.001 C17.462,-0.001 17.998,0.528 17.998,1.181 L17.998,6.822 L18.000,6.825 L17.996,6.828 ZM1.203,17.135 C1.203,21.378 4.694,24.817 9.002,24.817 C13.308,24.817 16.800,21.380 16.800,17.135 C16.800,12.894 13.309,9.453 9.002,9.453 C4.692,9.453 1.203,12.894 1.203,17.135 ZM4.801,1.181 L1.802,1.181 C1.470,1.181 1.203,1.446 1.203,1.773 L1.203,6.276 L4.801,9.252 L4.801,1.181 L4.801,1.181 ZM11.999,1.181 L6.001,1.181 L6.001,8.792 C6.939,8.462 7.946,8.272 9.000,8.272 C10.054,8.272 11.061,8.462 11.999,8.790 L11.999,1.181 L11.999,1.181 ZM16.799,1.773 C16.799,1.446 16.530,1.181 16.200,1.181 L13.199,1.181 L13.199,9.252 L16.799,6.276 L16.799,1.773 L16.799,1.773 ZM9.845,12.941 L10.802,14.956 L13.002,15.287 C13.351,15.341 13.636,15.580 13.750,15.911 C13.862,16.246 13.780,16.612 13.530,16.862 L11.912,18.504 L12.288,20.777 C12.346,21.128 12.194,21.487 11.902,21.692 C11.744,21.801 11.557,21.861 11.366,21.861 C11.209,21.861 11.056,21.821 10.917,21.747 L9.003,20.699 L7.089,21.747 C6.779,21.915 6.390,21.892 6.103,21.694 C5.809,21.487 5.657,21.128 5.717,20.779 L6.091,18.505 L4.473,16.864 C4.225,16.614 4.140,16.248 4.253,15.913 C4.364,15.580 4.649,15.341 4.997,15.287 L7.198,14.956 L8.155,12.941 C8.309,12.617 8.640,12.408 9.000,12.408 C9.360,12.408 9.691,12.617 9.845,12.941 L9.845,12.941 ZM8.401,14.254 L7.744,15.637 L6.228,15.866 C5.991,15.902 5.794,16.066 5.717,16.293 C5.639,16.524 5.697,16.776 5.867,16.947 L6.981,18.073 L6.723,19.638 C6.684,19.879 6.787,20.127 6.989,20.267 C7.185,20.403 7.452,20.420 7.667,20.304 L8.983,19.584 L10.300,20.304 C10.396,20.355 10.501,20.382 10.608,20.382 C10.740,20.382 10.869,20.343 10.980,20.267 C11.179,20.127 11.287,19.880 11.244,19.638 L10.986,18.073 L12.102,16.947 C12.273,16.776 12.329,16.524 12.250,16.293 C12.171,16.066 11.975,15.902 11.735,15.866 L10.221,15.637 L9.564,14.254 C9.459,14.029 9.231,13.885 8.983,13.885 C8.736,13.885 8.507,14.029 8.401,14.254 L8.401,14.254 Z" class="cls-1"/>
</svg>
